# xmcd
#
# Track frame offsets: 
#        150
#        20850
#        38825
#        56930
#        80213
#        98988
#        117513
#        143025
#        160875
#        175400
#        198475
#        215138
#        231538
#        251463
#
# Disc length: 3701 seconds
#
# Revision: 4
# Processed by: cddbd v1.5.2PL0 Copyright (c) Steve Scherf et al.
# Submitted via: ExactAudioCopy v1.1
#
DISCID=db0e730e
DTITLE=曾淑勤 - 金選集
DYEAR=1993
DGENRE=Folk
TTITLE0=Tears In Heaven
TTITLE1=你有什麼樣的苦
TTITLE2=魯冰花
TTITLE3=纏綿
TTITLE4=客途秋恨
TTITLE5=一個人遊遊蕩蕩
TTITLE6=歲月的酒
TTITLE7=不再等待天堂
TTITLE8=成長的路
TTITLE9=裝在袋子裡的回憶
TTITLE10=美麗的眷戀
TTITLE11=花蓮的雲常漂在他心上
TTITLE12=你怕不怕黑
TTITLE13=後浪(吟唱曲)
EXTD=
EXTT0=
EXTT1=
EXTT2=
EXTT3=
EXTT4=
EXTT5=
EXTT6=
EXTT7=
EXTT8=
EXTT9=
EXTT10=
EXTT11=
EXTT12=
EXTT13=
PLAYORDER=
